<?xml version="1.0" encoding="utf-8"?>
<!-- Generator: Adobe Illustrator 26.3.0, SVG Export Plug-In . SVG Version: 6.00 Build 0)  -->
<svg version="1.1" id="Camada_2_00000168823433964678184660000004700662955973103790_"
	 xmlns="http://www.w3.org/2000/svg" xmlns:xlink="http://www.w3.org/1999/xlink" x="0px" y="0px" viewBox="0 0 490.5 490.5"
	 style="enable-background:new 0 0 490.5 490.5;" xml:space="preserve">
<style type="text/css">
	.st0{fill:#989C85;}
</style>
<path class="st0" d="M0,69.9c2.7-9.5,7.3-17.7,16.6-22.2c2.8-1.4,6-2.8,9-3c9.8-0.4,19.7-0.1,30-0.1c0,9.3,0,18.7,0,28
	c0,23.3,13.2,36.8,36.5,36.4c7.1-0.1,14.7-0.5,21-3.2c12.8-5.3,18.9-16.2,19.1-30c0.2-10.4,0-20.7,0-31.5h134.1
	c0,9.9-0.4,19.9,0.2,29.9c0.3,5.6,1.5,11.4,3.5,16.6c2.6,6.8,8,11.4,14.4,14.7c16.1,8.2,41.1,3.9,51.5-9.1c5-6.2,7-13.5,7-21.4
	c0-10.2,0-20.4,0-30.3c10.7,0,21.1-1.1,31.2,0.3c14.6,2,24.1,14.9,24.3,30.6c0.1,17.2,0,34.5,0,51.7c0,30.5,0,61,0,91.5v5.2
	c-11.6-0.8-22.8-1.6-34.3-2.4v-70H34.5v4.9c0,58.4,0,116.9,0,175.3c0,17.2,9,26.3,26.2,26.4c50.3,0,100.6,0,150.9,0h5.3
	c0.9,12.9,1.8,25.2,2.7,38.3h-4.9c-58.9,0-117.8,0-176.8,0c-22.7,0-30.1-5-38-25.9L0,69.9L0,69.9z"/>
<path class="st0" d="M103.5,0c7.6,3.8,9.9,10,9.7,18.4c-0.4,18.7-0.1,37.4-0.2,56c0,10.4-5.2,15.6-15.6,15.6c-3.2,0-6.4,0.1-9.6-0.1
	c-7.3-0.3-13-5.5-13.1-12.7c-0.2-21.5-0.2-43.1,0-64.7c0-6.4,4.6-9.7,9.5-12.6L103.5,0L103.5,0z"/>
<path class="st0" d="M314.3,0c7.6,3.8,9.9,10,9.7,18.4c-0.5,18.7-0.1,37.4-0.1,56c0,10.4-5.2,15.6-15.6,15.6c-3.2,0-6.4,0.1-9.6-0.1
	c-7.3-0.3-13-5.5-13-12.7c-0.2-21.5-0.1-43.1,0-64.7c0-6.4,4.6-9.7,9.5-12.6L314.3,0L314.3,0z"/>
<path class="st0" d="M253,374.4c-2.3-63.3,49.7-119,113.3-121.4c66.1-2.5,121.7,48.5,124.1,113.9c2.4,66.4-48.7,121.1-115.4,123.5
	C309.8,492.8,255.5,441.1,253,374.4z M372,293.2c-43.2-0.2-78.7,35.1-78.8,78.4c-0.1,43.1,34.9,78.3,78.1,78.7
	c43.2,0.3,78.8-34.9,79-78.2C450.6,328.9,415.3,293.4,372,293.2z"/>
<path class="st0" d="M138.3,208.3c0.5,16.6-12.8,30.4-29.8,31c-16.1,0.6-30.2-13-30.8-29.6c-0.6-16.6,13.2-31,30.1-31.3
	C124.1,178.2,137.8,191.6,138.3,208.3z"/>
<path class="st0" d="M320.9,208.9c0,16.6-14,30.6-30.5,30.4c-16.8-0.2-30.4-14-30.2-30.7c0.2-16.6,13.6-30.1,30.2-30.2
	C306.9,178.3,320.9,192.3,320.9,208.9L320.9,208.9z"/>
<path class="st0" d="M138.3,300.8c0.1,16.7-13.7,30.6-30.3,30.5c-16.4,0-30.1-13.7-30.3-30.1c-0.2-16.5,13.5-30.5,30.2-30.8
	C124.4,270.2,138.3,284,138.3,300.8L138.3,300.8z"/>
<path class="st0" d="M200,178.5c17,0.8,30.6,15.1,29.7,31.2c-1,17.1-15.3,30.6-31.3,29.6c-17-1.1-30.1-14.9-29.5-30.9
	C169.6,191.3,183.8,177.7,200,178.5L200,178.5z"/>
<path class="st0" d="M229.7,301.5c-0.8,17-15,30.6-31.1,29.8c-17.1-0.9-30.6-15.2-29.6-31.3c1-16.9,14.8-30.1,30.9-29.5
	C216.7,271,230.4,285.3,229.7,301.5z"/>
<path class="st0" d="M318.3,386.7v-26.4h41.8v-42h26.8v68.4H318.3L318.3,386.7z"/>
</svg>
