<?xml version="1.0" encoding="utf-8"?>
<!-- Generator: Adobe Illustrator 26.3.0, SVG Export Plug-In . SVG Version: 6.00 Build 0)  -->
<svg version="1.1" id="Camada_2_00000016754987963492862650000009085995142083413895_"
	 xmlns="http://www.w3.org/2000/svg" xmlns:xlink="http://www.w3.org/1999/xlink" x="0px" y="0px" viewBox="0 0 359 383.4"
	 style="enable-background:new 0 0 359 383.4;" xml:space="preserve">
<style type="text/css">
	.st0{fill:#613414;}
</style>
<path class="st0" d="M152.4,383.4c-10.3-2.5-20.6-4.7-30.8-7.5c-9.7-2.7-19.2-6.2-28.8-9.2c-2.7-0.8-3.3-2.1-3.3-4.7
	c0.1-34.3,0.1-68.6,0.1-102.9c0-6.5,0.1-13-0.1-19.5c-0.1-2.6,0.9-4,3-5.4c27.8-17.9,65.2-16.6,90.5,4.6c8.9,7.5,17.7,10.8,29.1,10
	c11.2-0.8,22.4-0.2,33.7-0.2c13.4,0,23.5,9.6,23.6,22.4c0,12.8-10,22.5-23.4,22.5c-20.6,0-41.2,0-61.7,0h-4.4V316h3.9
	c22.8,0,45.7-0.1,68.5,0c9.5,0,16.5-3.5,21.8-11.8c14.6-22.8,29.5-45.3,44.4-67.9c6.7-10.2,20-13.2,30.2-6.9
	c10,6.2,13.7,20.4,7.6,30.3c-19,30.6-37.6,61.5-57.5,91.5c-12.1,18.3-30.6,28.1-52.3,31.4c-1.1,0.2-2.1,0.5-3.2,0.8L152.4,383.4
	L152.4,383.4z"/>
<path class="st0" d="M224.3,22.1c6.8-7.5,14.6-13.2,23.7-17c40.7-16.5,82.9,8.7,87.9,52.4c2.6,22.3-4.1,41.8-17,59.5
	c-11.3,15.5-25.2,28.6-39.4,41.4c-17.8,15.9-35.7,31.5-53.6,47.2c-0.5,0.4-1,0.8-1.6,1.3c-0.9-0.7-1.8-1.4-2.6-2.1
	c-23.3-20.9-46.9-41.5-69.8-62.7c-13.4-12.4-25.2-26.3-32.8-43.2c-9.2-20.4-10-41.2-0.8-61.6c21.3-47.2,76.2-45,102.2-19
	C221.7,19.4,222.8,20.6,224.3,22.1L224.3,22.1z"/>
<path class="st0" d="M66.9,248.9v111.8H0V248.9H66.9z"/>
</svg>
