<?xml version="1.0" encoding="utf-8"?>
<!-- Generator: Adobe Illustrator 26.3.0, SVG Export Plug-In . SVG Version: 6.00 Build 0)  -->
<svg version="1.1" id="Camada_2_00000119799773242224835700000009605702369353039247_"
	 xmlns="http://www.w3.org/2000/svg" xmlns:xlink="http://www.w3.org/1999/xlink" x="0px" y="0px" viewBox="0 0 87.1 87.1"
	 style="enable-background:new 0 0 87.1 87.1;" xml:space="preserve">
<style type="text/css">
	.st0{fill:#FFFFFF;}
</style>
<g id="Camada_1-2">
	<path class="st0" d="M43.2,75.2c-10.4,0-20.8,0-31.1,0c-8.3,0-12-3.8-12-12.1c0-13.2,0-26.4,0-39.5c0-7.7,3.9-11.6,11.5-11.6
		c21.4-0.1,42.8-0.1,64.2,0c7.4,0,11.2,4,11.3,11.4c0.1,13.5,0.1,27,0,40.5c0,7.4-3.9,11.3-11.3,11.4C64.9,75.3,54.1,75.2,43.2,75.2
		z M82.9,19.7C71.4,29.8,60.8,39.1,50.1,48.4c-5,4.3-8.1,4.3-13,0C27.3,40,17.7,31.5,8,23c-1-0.9-2.2-1.7-3.6-2.7v46.6
		c1.2-0.8,1.8-1.3,2.4-1.8C13,59.8,19.2,54.3,25.5,49c0.8-0.7,2.5-0.4,3.7-0.5c-0.4,1.1-0.5,2.5-1.2,3.3c-2.7,2.7-5.7,5-8.5,7.6
		c-4,3.5-7.9,7.1-12.7,11.4h73.6c-2.5-2.3-4.1-3.8-5.6-5.2c-5.2-4.6-10.5-9.1-15.6-13.8c-0.8-0.7-0.7-2.4-1-3.6
		c1.2,0.2,2.5,0.1,3.4,0.7c2,1.4,3.8,3.2,5.6,4.8c5,4.3,10.1,8.7,15.7,13.6V19.7z M8.2,16.3l-0.5,1.2c11,9.6,22,19.2,33,28.8
		c2.7,2.3,4.8,0.8,6.9-1c9.9-8.7,19.8-17.4,29.7-26.1c0.7-0.7,1.2-1.6,2.3-2.9L8.2,16.3L8.2,16.3z"/>
</g>
</svg>
