<?xml version="1.0" encoding="utf-8"?>
<!-- Generator: Adobe Illustrator 26.3.0, SVG Export Plug-In . SVG Version: 6.00 Build 0)  -->
<svg version="1.1" id="Camada_2_00000028324352880455038290000000970202115707677374_"
	 xmlns="http://www.w3.org/2000/svg" xmlns:xlink="http://www.w3.org/1999/xlink" x="0px" y="0px" viewBox="0 0 383.4 344.2"
	 style="enable-background:new 0 0 383.4 344.2;" xml:space="preserve">
<style type="text/css">
	.st0{fill:#613414;}
</style>
<g id="Camada_1-2">
	<g>
		<path class="st0" d="M383.4,343.8c-1.4,0.1-2.7,0.3-4.1,0.3c-36.9,0-73.9,0-110.8,0h-4.8c1.8-31.5-10-55.6-36.8-72.3
			c0.6-0.7,1.1-1.4,1.7-2c12.6-13.3,17.1-29,13.8-46.9c-0.4-2.3,0-3.5,1.9-4.4c1-0.5,1.9-1.1,2.9-1.8c6.6-4.4,12.3-6.1,20.8-1.5
			c19,10.2,38.7,8.5,57.4-2.6c2.1-1.2,3.7-1.3,5.8-0.2c29.6,14.9,47.3,38.6,51.9,71.6c0.1,0.7,0.1,1.3,0.3,2L383.4,343.8
			L383.4,343.8z"/>
		<path class="st0" d="M119.8,344H0.4c-0.1-1.2-0.2-2.3-0.2-3.4c0-15.6-0.4-31.3,0.1-46.9c1.2-37.3,19-64.3,52.1-81.2
			c2.4-1.2,4.2-1.2,6.8,0.3c20.9,12,41.9,12,62.8-0.1c2.2-1.2,3.8-1.7,6.1-0.3c3.8,2.3,7.9,4.3,11.7,6.6c0.9,0.5,1.7,2.2,1.5,3.1
			c-3.6,18.9,1.2,35.1,14.7,48.7c0.2,0.2,0.4,0.6,0.7,1.1C129.9,288.5,118,312.7,119.8,344L119.8,344z"/>
		<path class="st0" d="M191.2,16.2c7.4-8,15.2-13.1,24.8-15c17.7-3.6,33,1.2,44.8,14.9c11.9,13.9,14,30,7.7,47
			c-5.3,14.3-15,25.5-25.8,35.9c-14.9,14.4-31.7,26.2-49.1,37.2c-0.9,0.6-2.7,0.7-3.6,0.1c-21.5-13.7-42.3-28.3-59.2-47.7
			c-9.1-10.5-16.4-21.9-18.7-36c-4.5-28.3,18.7-54,47.3-52.5c11.7,0.6,21.7,5,30.1,13.3C190.2,14,190.6,15,191.2,16.2z"/>
		<path class="st0" d="M241.1,344h-98.6c-1.9-20.6,3.9-38,21.3-49.8c17.1-11.7,35.4-12.3,53.2-1.8C236.2,303.9,243,321.9,241.1,344z
			"/>
		<path class="st0" d="M128.4,161.1c0,21.1-16.9,38.1-38,38.1c-21.2,0-38.3-17.2-38.1-38.4c0.2-21.1,17.3-38.1,38.2-38
			C111.5,122.9,128.5,140,128.4,161.1z"/>
		<path class="st0" d="M332,161.1c-0.1,21.3-17.2,38.2-38.5,38c-21-0.2-37.9-17.4-37.6-38.4c0.2-21.1,17.4-38.1,38.3-37.9
			C315.2,123,332.1,140.1,332,161.1L332,161.1z"/>
		<path class="st0" d="M192,204.2c16.2,0.1,29.1,13.1,29.1,29.4c0,16.4-13.2,29.4-29.6,29.3c-16.1-0.1-29-13.3-28.9-29.6
			C162.6,217,175.7,204.1,192,204.2L192,204.2z"/>
	</g>
</g>
</svg>
