<?xml version="1.0" encoding="utf-8"?>
<!-- Generator: Adobe Illustrator 26.3.0, SVG Export Plug-In . SVG Version: 6.00 Build 0)  -->
<svg version="1.1" id="Camada_2_00000178166909617491725840000008045913558852760228_"
	 xmlns="http://www.w3.org/2000/svg" xmlns:xlink="http://www.w3.org/1999/xlink" x="0px" y="0px" viewBox="0 0 345 249.8"
	 style="enable-background:new 0 0 345 249.8;" xml:space="preserve">
<style type="text/css">
	.st0{fill:#FFFFFF;}
	.st1{fill:#613414;}
</style>
<g id="Camada_1-2">
	<g>
		<path class="st0" d="M39.6,145.8c-0.8,0.4-1.8,0.8-2.6,1.3c-24.8,14-39.8,43.2-36.6,71.5c1.7,14.8,9.3,24.4,23.8,27.6
			c9.4,2.1,19.2,3.2,28.9,3.3c36.9,0.4,73.9,0.4,110.8,0.2c10.2-0.1,20.5-0.6,30.6-2.1c19.8-3,29.3-14.5,29.7-34.5
			c0.3-16.6-4.3-31.8-14-45.2c-7-9.6-15.7-17.2-26.4-22.6c1.2,6.5,2.4,12.8,3.7,19.4c0.8,0.3,1.9,0.8,3.1,1.3
			c7,3.3,11.3,10.9,10.4,18.3c-1.2,8.9-8.2,15.4-17.1,15.9c-8.5,0.5-16.4-5.5-18.4-14c-1.9-8.4,2.3-17,10.6-20.5
			c2.4-1,3-2.2,2.5-4.5c-0.9-4-1.4-8.2-2.9-11.9c-3.9-9.8-6.7-11.2-17.6-11.4c-10.8,20.3-29.2,32.3-46.4,47
			c-12-11-23.8-21.5-35.2-32.5c-4.1-4-6.8-9.3-10.6-14.5c-12,0.5-15.3,2-19,14.8c-0.5,1.9-0.5,4-0.9,5.9c-1.2,5.1,1.7,8,5.3,10.7
			c2.6,1.9,5.1,4.1,7.2,6.4c4,4.5,6.6,9.7,7.1,16c0.6,7,2.5,14,2.8,21c0.4,8-2.1,11-9.6,13.6c-2.3,0.8-4.9,0.6-7.4,0.6
			c-3.5,0-5.8-2-5.9-4.9c-0.2-3,2.2-5.4,5.8-5.5c2.5-0.1,4.9,0,7.3,0c3-12.1-2.7-28.6-12.2-36c-3.4-2.7-6.8-3-9.7,0.3
			c-4,4.6-8.4,9.5-10.6,15.1c-2.1,5.6-1.8,12.2-2.4,18.3c-0.2,1.8,0.7,2.7,2.8,2.4c2.1-0.3,4.2-0.2,6.4,0c3,0.3,4.8,2.1,4.9,5.1
			c0.1,2.8-2.1,5.1-5.2,5.2c-2,0.1-4.1,0.4-6-0.1c-7.1-1.7-10.6-3.1-11.9-10.4c-1.7-10.5,0.9-20.6,4-30.5
			c2.1-6.9,7.1-12.4,13.2-16.8c2.3-1.7,4.5-4.4,5.3-7.1C38.6,156.9,38.8,151.5,39.6,145.8L39.6,145.8z M50.5,66.5
			c1.9,23.6,11.8,48.2,32.5,67.7c18.8,17.6,39.8,17.2,58.8-0.3c11.1-10.1,18.7-22.7,24.3-36.4c5.8-14.4,9.5-29.2,7.1-44.9
			c-4.7-31.3-33.6-54.8-64.2-52.4C75.1,2.9,50.4,29,50.5,66.5z M174.7,182.3c0.1,4.7,3.9,8.3,8.5,8.1c4.4-0.2,8.1-3.9,8.1-8.3
			c0-4.5-3.9-8.4-8.4-8.3C178.2,173.9,174.6,177.7,174.7,182.3L174.7,182.3z"/>
		<path class="st1" d="M39.6,145.8c-0.8,5.7-1,11.1-2.4,16.2c-0.7,2.7-2.9,5.5-5.3,7.1c-6.1,4.4-11.1,9.8-13.2,16.8
			c-3,9.8-5.7,19.9-3.9,30.5c1.2,7.4,4.8,8.7,11.8,10.4c1.9,0.4,4,0.2,6,0.1c3.1-0.2,5.3-2.4,5.2-5.2c-0.1-3.1-2-4.8-4.9-5.1
			c-2.1-0.2-4.3-0.3-6.4,0c-2.1,0.3-2.9-0.6-2.8-2.4c0.6-6.2,0.2-12.7,2.4-18.3c2.1-5.6,6.5-10.4,10.6-15.1c2.9-3.3,6.3-3,9.7-0.3
			c9.5,7.4,15.2,24,12.2,36c-2.4,0-4.8-0.1-7.3,0c-3.6,0.2-6,2.5-5.8,5.5c0.1,2.9,2.4,4.9,5.9,4.9c2.5,0,5.1,0.2,7.4-0.6
			c7.5-2.5,9.9-5.5,9.6-13.6c-0.3-7-2.2-13.9-2.8-21c-0.6-6.3-3.1-11.5-7.1-16c-2.1-2.4-4.6-4.5-7.2-6.4c-3.6-2.7-6.5-5.6-5.3-10.7
			c0.5-1.9,0.4-4,0.9-5.9c3.7-12.8,6.9-14.3,19-14.8c3.7,5.2,6.5,10.5,10.6,14.5c11.3,11,23.2,21.5,35.2,32.5
			c17.2-14.7,35.7-26.7,46.4-47c10.9,0.1,13.8,1.5,17.6,11.4c1.5,3.8,1.9,7.9,2.9,11.9c0.5,2.2-0.1,3.4-2.5,4.5
			c-8.3,3.4-12.5,12.1-10.6,20.5c2,8.5,9.9,14.4,18.4,14c8.9-0.5,15.9-7,17.1-15.9c1-7.4-3.3-15-10.4-18.3c-1.1-0.5-2.3-1-3.1-1.3
			c-1.2-6.6-2.4-12.9-3.7-19.4c10.7,5.4,19.4,12.9,26.4,22.6c9.7,13.5,14.3,28.6,14,45.2c-0.3,20.1-9.9,31.6-29.7,34.5
			c-10.1,1.5-20.4,2.1-30.6,2.1c-36.9,0.2-73.9,0.2-110.8-0.2c-9.7-0.1-19.5-1.2-28.9-3.3C9.8,243,2.1,233.4,0.4,218.6
			C-2.8,190.2,12.1,161,36.9,147C37.8,146.5,38.7,146.2,39.6,145.8L39.6,145.8z"/>
		<path class="st1" d="M50.5,66.5C50.4,29,75.1,2.9,108.9,0.2c30.6-2.5,59.6,21,64.2,52.4c2.3,15.7-1.3,30.5-7.1,44.9
			c-5.6,13.8-13.2,26.3-24.3,36.4c-19,17.4-40,17.9-58.8,0.3C62.2,114.8,52.4,90.1,50.5,66.5L50.5,66.5z"/>
		<path class="st1" d="M345,66.5c0.1,36.7-29.5,66.6-66.1,66.7c-36.9,0.1-66.7-29.5-66.8-66.3c-0.1-36.8,29.8-66.8,66.5-66.8
			C315.1,0.1,344.9,29.9,345,66.5L345,66.5z M278.4,16.8c-27.7,0-49.8,22.3-49.8,50c0.1,27.6,22.5,49.9,50.1,49.8
			c27.4-0.1,49.6-22.5,49.6-49.9C328.4,39,306.1,16.7,278.4,16.8L278.4,16.8z"/>
		<path class="st1" d="M174.7,182.3c-0.1-4.7,3.5-8.4,8.1-8.5c4.5,0,8.4,3.8,8.4,8.3c0,4.4-3.7,8.1-8.1,8.3
			C178.5,190.6,174.8,187,174.7,182.3L174.7,182.3z"/>
		<path class="st1" d="M290.3,54.7c5.6,0,10.8,0,16,0c4.7,0,5.5,0.8,5.5,5.4c0,4.4,0,8.7,0,13.1c0,4.7-0.6,5.3-5.5,5.3
			c-5.2,0-10.4,0-16,0c0,5.8,0,11.1,0,16.4c0,4.3-0.7,5-5,5.1c-4.6,0-9.2-0.1-13.8,0c-3.6,0.1-4.9-1.4-4.8-4.9
			c0.1-5.3,0-10.7,0-16.6c-5.5,0-10.6,0-15.8,0s-5.6-0.5-5.7-5.5c0-4.5,0.1-9,0-13.5c-0.1-3.6,1.6-4.9,4.9-4.9
			c5.4,0.1,10.7,0,16.6,0c0-5.5,0-10.7,0-15.9c0-4.9,0.5-5.3,5.4-5.3c4.6,0,9.2,0.1,13.8,0c3.3-0.1,4.5,1.3,4.5,4.4
			C290.3,43.3,290.4,48.8,290.3,54.7L290.3,54.7z"/>
	</g>
</g>
</svg>
