<?xml version="1.0" encoding="utf-8"?>
<!-- Generator: Adobe Illustrator 26.3.0, SVG Export Plug-In . SVG Version: 6.00 Build 0)  -->
<svg version="1.1" id="Camada_2_00000106130284430812643400000011354188713589940904_"
	 xmlns="http://www.w3.org/2000/svg" xmlns:xlink="http://www.w3.org/1999/xlink" x="0px" y="0px" viewBox="0 0 87.3 87.3"
	 style="enable-background:new 0 0 87.3 87.3;" xml:space="preserve">
<style type="text/css">
	.st0{fill:#FFFFFF;}
</style>
<g id="Camada_1-2">
	<g>
		<path class="st0" d="M43.4,87.2c-5.9,0-11.9,0.1-17.8,0C11.3,86.9,0.3,75.9,0.1,61.6c-0.2-12-0.2-24.1,0-36.1
			c0.2-14,11.2-25.1,25.2-25.3C37.5,0,49.8,0,62,0.2c14,0.2,25,11.3,25.2,25.3c0.2,12.2,0.2,24.4,0,36.6
			c-0.3,13.8-11.2,24.7-25,25.1C55.9,87.3,49.7,87.2,43.4,87.2z M4.1,43.2c0,6.1-0.1,12.2,0,18.3c0.2,12.3,9.4,21.5,21.7,21.7
			c11.9,0.2,23.7,0.2,35.6,0c12.3-0.2,21.6-9.3,21.8-21.6c0.2-12,0.2-24.1,0-36.1C83,13.5,73.8,4.3,61.8,4.1
			c-12-0.2-24.1-0.2-36.1,0C13.4,4.3,4.3,13.6,4.1,25.9C4,31.7,4,37.5,4.1,43.2z"/>
		<path class="st0" d="M21.9,43.5c0.1-11.9,9.9-21.6,21.8-21.6c12.1,0,21.9,10.1,21.7,22.2C65.2,56,55.3,65.6,43.3,65.4
			C31.5,65.3,21.8,55.4,21.9,43.5L21.9,43.5z M61.4,43.5c-0.1-9.9-8.2-17.8-18.1-17.6c-9.7,0.1-17.5,8-17.5,17.7
			c0,9.9,8,17.9,17.8,17.9C53.5,61.5,61.5,53.4,61.4,43.5L61.4,43.5z"/>
		<path class="st0" d="M64.7,17.5c1-1.5,3.3-1.8,4.8-0.7c1.1,0.8,1.3,1.5,1.5,2.6c0.4,2.1-0.8,4.1-3.5,4.1s-3.6-2-3.7-3.2
			C63.7,19.5,64,18.7,64.7,17.5L64.7,17.5z"/>
	</g>
</g>
</svg>
