<?xml version="1.0" encoding="utf-8"?>
<!-- Generator: Adobe Illustrator 26.3.0, SVG Export Plug-In . SVG Version: 6.00 Build 0)  -->
<svg version="1.1" id="Camada_2_00000078008756366844528060000012918976031957949067_"
	 xmlns="http://www.w3.org/2000/svg" xmlns:xlink="http://www.w3.org/1999/xlink" x="0px" y="0px" viewBox="0 0 90 97.3"
	 style="enable-background:new 0 0 90 97.3;" xml:space="preserve">
<style type="text/css">
	.st0{fill:#FFFFFF;}
</style>
<g id="Camada_1-2">
	<g>
		<path class="st0" d="M45,97.3c-3.8-4.9-6.9-8.7-9.8-12.7C25.3,70.6,16.5,56,13.8,38.5c-2.1-13.8,2.2-25,13.6-33
			c10.4-7.3,24.5-7.3,34.9,0c11.4,8,16,19.3,13.7,33C72.3,61.1,59.4,78.9,45,97.3L45,97.3z M45,91c12.5-16.6,23.6-32.9,27.2-53.1
			c2-11.7-1.5-21.6-11.1-28.5c-9.4-6.8-19.7-7.3-29.8-1.6C21,13.8,16.2,23.3,17.5,35C19.9,56.7,31.8,73.8,45,91L45,91z"/>
		<path class="st0" d="M58.8,34.1c0,7.6-6.3,14-13.9,13.9s-13.8-6.4-13.8-14c0-7.6,6.3-14,13.8-13.9S58.8,26.5,58.8,34.1z M54.9,34
			c0-5.4-4.4-9.8-9.7-9.9c-5.5-0.1-10.1,4.5-10,10c0,5.4,4.4,9.8,9.7,9.9C50.3,44.2,54.9,39.6,54.9,34z"/>
	</g>
</g>
</svg>
