<?xml version="1.0" encoding="utf-8"?>
<!-- Generator: Adobe Illustrator 26.3.0, SVG Export Plug-In . SVG Version: 6.00 Build 0)  -->
<svg version="1.1" id="Camada_1" xmlns="http://www.w3.org/2000/svg" xmlns:xlink="http://www.w3.org/1999/xlink" x="0px" y="0px"
	 viewBox="0 0 101.5 101.5" style="enable-background:new 0 0 101.5 101.5;" xml:space="preserve">
<style type="text/css">
	.st0{fill:#FFFFFF;}
</style>
<path class="st0" d="M50.9,0.4C23.1,0.4,0.4,23.1,0.4,50.9s22.7,50.5,50.5,50.5s50.5-22.7,50.5-50.5S78.7,0.4,50.9,0.4z M50.9,6.4
	c24.5,0,44.5,20,44.5,44.5s-20,44.5-44.5,44.5S6.4,75.4,6.4,50.9S26.4,6.4,50.9,6.4z M50.9,17.9c-1.7,0-3,1.3-3,3v24.8
	c-1.8,1-3,3-3,5.2c0,3.3,2.7,6,6,6c2.2,0,4.2-1.2,5.2-3h14.8c1.7,0,3-1.3,3-3c0-1.7-1.3-3-3-3H56.1c-0.5-0.9-1.3-1.7-2.2-2.2V20.9
	C53.9,19.2,52.6,17.9,50.9,17.9z"/>
</svg>
