<?xml version="1.0" encoding="utf-8"?>
<!-- Generator: Adobe Illustrator 26.3.0, SVG Export Plug-In . SVG Version: 6.00 Build 0)  -->
<svg version="1.1" id="Camada_2_00000114052139070849309580000017250511921176981901_"
	 xmlns="http://www.w3.org/2000/svg" xmlns:xlink="http://www.w3.org/1999/xlink" x="0px" y="0px" viewBox="0 0 511 510.4"
	 style="enable-background:new 0 0 511 510.4;" xml:space="preserve">
<style type="text/css">
	.st0{fill:#989C85;}
</style>
<path class="st0" d="M321.4,510.4c-52.9-15.2-98-44.8-140.8-77.8C105.8,374.9,49.7,302.1,9.9,216.7C-8.5,177.2-0.8,130.9,29.7,99.9
	C52,77.1,74.8,54.7,97.9,31.7c1.1,1.4,2.1,2.6,3,3.8c28.9,40.2,57.7,80.5,86.7,120.7c2.1,2.9,1.8,4.7,0.1,7.4
	c-13,20.5-25.7,41.2-38.7,61.6c-4.3,6.8-4.1,12.9,0.1,19.5c30.2,47.7,69.2,86.6,116.9,116.8c6.4,4.1,12.5,4.2,19.1,0.1
	c20.6-13.1,41.4-25.9,62.1-38.9c2.2-1.4,3.8-2.3,6.6-0.3c41,29.6,82.1,59,123.1,88.4c0.5,0.4,1,0.9,2,1.7c-1.2,1.4-2.4,2.7-3.6,3.9
	c-20.2,20.2-40.6,40.3-60.6,60.7c-16.7,17-36.3,28.3-59.9,32.4c-0.4,0.1-0.8,0.5-1.2,0.8L321.4,510.4L321.4,510.4z"/>
<path class="st0" d="M511,85.2c-36.5,36.4-73,72.8-109.4,109.3c-0.3,0.3-0.5,0.8-0.9,1.3c14,13.9,28,27.9,43,42.8H272.8V69.2
	c14,14.1,28,28,41.8,41.9C352,73.7,388.7,37,425.7,0c2,1.9,3.3,3,4.6,4.3c25.5,25.5,51,51,76.6,76.5c1.2,1.2,2.8,2.2,4.1,3.4V85.2z"
	/>
</svg>
