<?xml version="1.0" encoding="utf-8"?>
<!-- Generator: Adobe Illustrator 26.3.0, SVG Export Plug-In . SVG Version: 6.00 Build 0)  -->
<svg version="1.1" id="Camada_2_00000016070352535364531200000001256708062139575440_"
	 xmlns="http://www.w3.org/2000/svg" xmlns:xlink="http://www.w3.org/1999/xlink" x="0px" y="0px" viewBox="0 0 87.1 87.7"
	 style="enable-background:new 0 0 87.1 87.7;" xml:space="preserve">
<style type="text/css">
	.st0{fill:#FFFFFF;}
</style>
<g id="Camada_1-2">
	<path class="st0" d="M68.5,87.7c-4.5-1.8-10-3.2-14.8-6c-20.2-12-36.3-28.4-48.7-48.4c-0.5-0.8-1-1.7-1.4-2.6
		c-6.8-13.9-4.4-21.8,9-29.5c3.3-1.9,6.3-1.8,8.6,1.6C25,8.2,28.4,13.6,32,18.9c2.6,3.8,0.9,7.2-1.3,10c-3.5,4.4-2.3,7.6,1.3,11
		c5.7,5.5,11.4,11,17,16.6c2.2,2.2,4.5,2.6,6.9,0.6c5.8-4.8,11.2-4,16.8,0.8c3.4,2.8,7.3,5,11.1,7.5c2.7,1.8,4.3,4.6,2.4,7.1
		c-3.9,5-8.4,9.5-12.9,14.1C72.6,87.3,70.9,87.1,68.5,87.7L68.5,87.7z M70,84c2.4-1.9,4.9-3.5,6.8-5.6c7.6-7.9,7.5-8-1.5-14
		c-1-0.6-2.1-1.1-2.9-1.9c-5.4-5.3-11-5.8-16.9-0.8c-2.5,2.1-4.7,1.7-6.9-0.5c-6.6-6.4-13.6-12.5-19.9-19.3c-6.2-6.6-5.8-6.8-1.6-15
		c1-1.9,1.6-5,0.8-6.6c-2.7-5.1-6.1-9.8-9.5-14.4c-0.7-0.9-3.3-1.4-4.3-0.8C3.3,11.3,1.6,16.6,6.7,27.8c0.3,0.8,0.7,1.5,1.1,2.2
		C20,50.4,36.2,66.8,56.7,78.8C60.6,81.1,65.2,82.2,70,84L70,84z"/>
</g>
</svg>
