<?xml version="1.0" encoding="UTF-8"?><svg id="Camada_2" xmlns="http://www.w3.org/2000/svg" viewBox="0 0 317.46 319.98"><g id="Camada_1-2"><g><path d="M0,319.98c6.22-18.53,12.09-36.02,17.96-53.52,2.86-8.52,5.61-17.08,8.69-25.52,1.14-3.12,.77-5.49-.85-8.38C-23.21,145.04,21.08,35.48,117.06,6.6c90.87-27.34,185.48,33.21,198.82,127.26,12.34,86.92-48.97,166.84-135.98,177.03-31.46,3.68-61.36-1.89-89.71-16.07-2.34-1.17-5.82-1.48-8.31-.71-25.44,7.88-50.79,16.07-76.17,24.17-1.54,.49-3.11,.93-5.7,1.7Zm40.33-39.69c15.86-5.06,30.76-9.74,45.59-14.61,2.93-.96,5.16-.79,7.87,.88,21.52,13.34,45.07,19.79,70.34,19.26,74.91-1.57,132.67-65.61,126.78-140.3-5.82-73.74-73.2-128.18-146.32-118.21C48.98,40.33,.31,148.47,54.09,228.51c1.92,2.86,2.01,5.1,.94,8.19-4.92,14.13-9.59,28.35-14.7,43.58Z" style="fill:#fff;"/><path d="M113.19,80.53c8.54-2.07,11.67,2.81,13.9,9.57,2.82,8.53,5.92,16.99,9.43,25.25,2.1,4.94,1.49,9.08-1.66,13.01-2.61,3.24-5.34,6.41-8.3,9.32-2.81,2.75-3.28,5.35-1.35,8.87,12.2,22.25,29.66,38.72,52.98,48.91,3.19,1.39,5.79,.91,8.07-1.7,4.05-4.65,8.3-9.14,12.11-13.97,2.58-3.27,5.38-4.42,9.07-2.5,10.79,5.59,21.54,11.27,32.3,16.94,3.6,1.9,3.01,5.24,2.7,8.37-1.72,17.49-12.44,26.07-30.28,30.47-8.62,2.13-16.72,.1-24.96-2.42-37.66-11.52-65.59-35.16-86.42-68.04-7.53-11.89-14.88-23.8-16.64-38.1-2.06-16.64,3.31-30.71,16.33-41.24,3.27-2.65,8.39-3.02,12.66-4.43l.07,1.7Z" style="fill:#fff;"/></g></g></svg>