<?xml version="1.0" encoding="utf-8"?>
<!-- Generator: Adobe Illustrator 26.3.0, SVG Export Plug-In . SVG Version: 6.00 Build 0)  -->
<svg version="1.1" id="Camada_2_00000025431268749477405510000003560750025366123932_"
	 xmlns="http://www.w3.org/2000/svg" xmlns:xlink="http://www.w3.org/1999/xlink" x="0px" y="0px" viewBox="0 0 125.7 147.3"
	 style="enable-background:new 0 0 125.7 147.3;" xml:space="preserve">
<style type="text/css">
	.st0{fill:#613414;}
</style>
<path class="st0" d="M62,147.3c-0.6,0-1.1-0.3-1.5-0.8c-1.2-1.7-2.8-3.2-4.7-4.3c-2.8-1.7-5.8-2.6-8.8-3.6c-0.6-0.2-1.2-0.4-1.8-0.6
	c-14.3-4.5-25.5-12-33.4-22.3c-8.9-11.6-13.2-27.3-11.2-41c0.1-0.6,0.5-1,1-1.1c0.5-0.1,1,0.2,1.2,0.7c2.9,6.7,7.1,12.8,12,17.5
	c6.4,6.1,13.8,10,21.6,13.8l0.6,0.3c6.6,3.2,13.4,6.5,18.5,12.6c5.2,6.3,8.9,15.5,9.4,26.8c0.1,1.1,0.1,1.7-0.9,2
	C63.8,147.4,62.2,147.3,62,147.3 M1.7,75.3c-1.8,13.3,2.4,28.4,11,39.6c7.8,10.1,18.8,17.4,32.8,21.8c0.6,0.2,1.2,0.4,1.8,0.6
	c3.1,0.9,6.2,1.9,9.2,3.7c2,1.2,3.7,2.8,5.1,4.7c0.2,0.2,0.4,0.3,0.7,0.3c0.3-0.1,0.6-0.5,0.6-1c-0.5-10.9-3.3-19.5-8.3-25.5
	c-4.9-5.9-11.6-9.1-18.1-12.3l-0.6-0.3c-7.9-3.8-15.4-7.8-21.9-14C8.9,88.1,4.7,82.1,1.7,75.3"/>
<path class="st0" d="M37.7,107.7c-9.8-7.3-18.1-21-20.8-34.5c-0.5,5-0.7,10-0.5,15c0.1,2,0.2,4.1,0.9,6L16,94.6
	c-0.7-2.1-0.9-4.4-0.9-6.4c-0.2-5.3,0-10.7,0.6-16c0.1-0.6,0.5-1.1,1.1-1.1s1.1,0.4,1.2,1c2.5,13.2,10.9,27.4,20.5,34.5
	C38.5,106.6,37.7,107.7,37.7,107.7z"/>
<path class="st0" d="M63.6,147.3c-0.2,0-0.4,0-0.6-0.1c-0.9-0.3-2.5-0.6-2.5-1.6c0.5-11.2,4.4-20.8,9.7-27
	c5.1-6.1,11.9-9.4,18.5-12.6l0.6-0.3c7.8-3.8,15.2-7.7,21.6-13.8c4.9-4.7,9.1-10.8,12-17.5c0.2-0.5,0.7-0.8,1.2-0.7
	c0.5,0.1,0.9,0.5,1,1.1c2,13.7-2.2,29.4-11.2,41c-7.9,10.3-19.2,17.8-33.4,22.3c-0.6,0.2-1.2,0.4-1.8,0.6c-3,0.9-6.1,1.9-8.8,3.6
	c-1.9,1.1-3.5,2.6-4.7,4.3C64.8,147,64.2,147.3,63.6,147.3 M123.9,75.4c-3,6.7-7.2,12.8-12.1,17.5c-6.5,6.2-14.1,10.2-21.9,14
	l-0.6,0.3c-6.5,3.2-13.2,6.4-18.1,12.3c-5.1,6-7.8,14.6-8.3,25.5c0,0.6,0.3,0.9,0.6,1c0.2,0.1,0.5,0,0.7-0.3c1.3-1.9,3-3.4,5.1-4.7
	c2.9-1.8,6.1-2.8,9.2-3.7c0.6-0.2,1.2-0.4,1.8-0.6c14-4.4,25-11.8,32.8-21.8C121.6,103.8,125.8,88.6,123.9,75.4"/>
<path class="st0" d="M87.8,107.8l-0.8-1c9.7-7.2,18.1-21.4,20.6-34.7c0.1-0.6,0.6-1.1,1.2-1c0.6,0,1.1,0.5,1.2,1.1
	c0.6,5.3,0.8,10.7,0.6,16.1c-0.1,2-0.2,4.3-1,6.4l-1.2-0.4c0.7-1.9,0.8-4,0.9-6c0.2-5,0-10.1-0.5-15.1
	C106,86.7,97.6,100.5,87.8,107.8"/>
<rect x="62.4" y="10.9" class="st0" width="1.2" height="125.6"/>
<rect x="52.5" y="3.4" transform="matrix(0.9899 -0.1414 0.1414 0.9899 -9.2527 8.208)" class="st0" width="1.2" height="131.7"/>
<rect x="45" y="9.6" transform="matrix(0.9639 -0.2662 0.2662 0.9639 -17.6272 14.7354)" class="st0" width="1.2" height="125.5"/>
<rect x="38.6" y="21.4" transform="matrix(0.9171 -0.3987 0.3987 0.9171 -28.0219 22.1098)" class="st0" width="1.2" height="114.1"/>
<rect x="32.2" y="37" transform="matrix(0.8327 -0.5537 0.5537 0.8327 -41.5389 32.3695)" class="st0" width="1.2" height="95.9"/>
<rect x="6.8" y="68.7" transform="matrix(0.1421 -0.9899 0.9899 0.1421 -6.3181 131.2871)" class="st0" width="131.5" height="1.2"/>
<rect x="17.4" y="71.8" transform="matrix(0.2659 -0.964 0.964 0.2659 -10.9499 130.3805)" class="st0" width="125.5" height="1.2"/>
<rect x="29.5" y="77.7" transform="matrix(0.4003 -0.9164 0.9164 0.4003 -19.7622 126.4277)" class="st0" width="114.3" height="1.2"/>
<rect x="44.9" y="84.4" transform="matrix(0.5537 -0.8327 0.8327 0.5537 -29.2759 115.2436)" class="st0" width="95.9" height="1.2"/>
<path class="st0" d="M125.3,75.1H124c0-36.3-22.8-73.8-61-73.8C28.8,1.3,2,33.4,2,74.4H0.7c0-19.6,6.1-38.1,17.2-51.9
	C29.5,8,45.5,0,63,0s33.5,8.1,45.1,22.8C119.2,36.8,125.3,55.4,125.3,75.1"/>
<polygon class="st0" points="62.8,2.4 64,4.6 66.1,5.7 64,6.9 62.8,9 61.6,6.9 59.5,5.7 61.6,4.6 "/>
</svg>
