<?xml version="1.0" encoding="UTF-8"?><svg id="Camada_2" xmlns="http://www.w3.org/2000/svg" viewBox="0 0 340.78 257.18"><g id="Camada_1-2"><path d="M0,196.06c0-14.63,12.2-25.95,27.49-25.95,5.87,0,13.05,1.4,17.68,4.93v7.35c-4.25-5.96-11.35-11.32-19.23-11.32-13.2,0-19.69,11.84-19.69,23.08,0,12.06,7.18,26.91,21.78,26.91,7.88,0,14.36-5.51,18.38-11.54l1,4.85c-5.1,4.04-13.2,7.65-19.92,7.65-15.21,0-27.49-11.4-27.49-25.95" style="fill:#fff;"/><path d="M62.47,185.04v25.07c0,5.15,2.16,10.14,8.34,10.14,3.86,0,7.64-1.91,10.58-4.12-3.01,3.46-7.57,5.88-12.28,5.88-7.8,0-10.97-6.18-10.97-12.79v-15.14c0-1.77-.54-3.68-2.78-3.75l7.1-5.29Zm26.1,0v26.98c0,1.69,.39,4.85,2.78,4.85l-7.1,4.92v-27.71c0-1.84-.54-3.68-2.78-3.75l7.1-5.29Z" style="fill:#fff;"/><path d="M100.16,221.79c2.93-.88,3.71-3.31,3.71-6.03v-21.54c0-1.54-.31-4.56-2.55-4.56l6.95-4.63v30.73c0,2.72,.85,5.15,3.71,6.03h-11.81Zm2.47-45.58c0-1.76,1.31-2.94,3.17-2.94s3.09,1.18,3.09,2.94-1.24,2.94-3.09,2.94-3.17-1.18-3.17-2.94" style="fill:#fff;"/><path d="M120.93,204.3c0-10.44,7.1-19.41,18.61-19.41,5.02,0,7.64,1.4,11.35,4.41v-11.84c0-1.76-.31-4.93-2.86-4.93l7.18-5.22v45.28c0,1.84,.54,3.75,2.86,3.9l-7.18,5.15v-25.8c0-5.59-6.33-10.22-11.89-10.22-8.88,0-13.21,9.78-13.21,17.05s4.02,17.42,12.97,17.42c4.32,0,6.95-1.47,10.04-4.27-2.47,3.6-6.95,6.03-11.51,6.03-10.04,0-16.37-8.6-16.37-17.57" style="fill:#fff;"/><path d="M167.96,212.9c0-8.53,15.68-11.84,22.47-12.79v-3.9c0-4.71-1.78-10.37-7.8-10.37-2.78,0-7.88,1.25-7.88,4.56,0,1.03,.38,1.99,.38,3.09,0,1.76-1.08,2.72-2.93,2.72s-2.7-1.4-2.7-2.94c0-5,9.5-8.23,13.82-8.23,10.43,0,11.43,5.66,11.43,14.11,4.63-1.1,9.19-2.5,13.36-4.78,0-1.54-.31-4.63-2.55-4.63l6.95-4.63v6.62c3.4-2.43,7.1-6.69,11.74-6.69,1.62,0,3.17,.66,3.17,2.35s-1.08,2.57-2.86,2.57-2.39-1.32-4.71-1.32c-1.39,0-3.17,.81-4.25,1.69-7.96,6.54-16.68,8.82-26.72,10.88-6.64,1.4-15.52,3.6-15.52,11.61,0,4.56,3.17,7.43,7.88,7.43,3.17,0,5.71-1.25,8.26-2.87-2.62,3.16-6.64,4.56-10.81,4.56-5.79,0-10.73-3.09-10.73-9.04m22.47-10.44c1.47-.37,2.86-.66,4.32-.96v13.38c0,2.28,.85,4.56,3.63,4.56,1.08,0,2.16-.22,2.93-.96-.54,1.84-3.48,3.46-5.41,3.46-4.63,0-5.48-3.31-5.48-7.06v-12.42Zm13.98,19.33c3.01-1.03,3.71-3.23,3.71-6.03v-18.75c1.08-.51,3.48-1.98,4.4-2.79v21.54c0,2.87,.77,4.78,3.63,6.03h-11.74Z" style="fill:#fff;"/><rect x="240.7" y="197.76" width="15.14" height="2.87" style="fill:#fff;"/><path d="M283.71,221.06c4.4,0,11.51-.96,11.51-6.47,0-9.41-24.79-7.28-24.79-19.7,0-6.76,6.18-10.29,12.67-10.29,3.01,0,10.27,1.4,13.05,2.57v6.91c-1.78-5.22-7.72-8.82-13.36-8.82-3.94,0-9.57,2.13-9.57,6.54,0,10.73,24.86,8.16,24.86,20.14,0,7.57-6.87,10.22-13.74,10.22-4.48,0-10.12-.96-14.44-2.21v-8.75c2.24,5.59,7.34,9.85,13.82,9.85" style="fill:#fff;"/><path d="M326.65,185.18c9.42,0,14.05,8.01,14.05,16.1h-28.88c0,8.89,3.86,18.01,14.67,18.01,4.63,0,11.97-1.47,14.29-5.81-2.32,5.59-8.88,8.82-14.98,8.82-10.66,0-18.61-7.94-18.61-18.01,0-11.47,7.18-19.11,19.46-19.11m-14.75,15.07h20.08c3.24,0,4.94-2.43,4.94-5.29,0-5.88-5.64-9.19-11.27-9.19-7.65,0-13.74,7.57-13.74,14.48" style="fill:#fff;"/><path d="M44.36,254.36c-.84,1.4-2.3,2.17-3.97,2.08-2.16-.11-4.36-1.5-4.42-4.36-.03-1.16,.34-2.22,1.04-2.98,.7-.76,1.69-1.2,2.8-1.22,1.24-.03,2.36,.34,3.02,.99,.38,.37,.58,.8,.58,1.25v.73h.58v-3.58h-.58v.54c0,.22,0,.44-.02,.55-.1-.03-.26-.12-.42-.21-.53-.3-1.43-.81-2.93-.85-1.6-.04-3.09,.57-4.15,1.66-.96,.99-1.46,2.26-1.39,3.57,.12,2.58,2.34,4.49,5.4,4.66,.11,0,.22,0,.32,0,1.94,0,3.61-.91,4.63-2.54l.13-.21-.51-.26-.11,.18Z" style="fill:#fff;"/><path d="M55.56,255.67c0,.64-.14,.82-.66,.82h-4.32v-7.95c0-.54,.01-.58,.64-.58h.51v-.57h-3.7v.57h.51c.62,0,.64,.04,.64,.58v7.43c0,.52-.02,.58-.64,.58h-.51v.56h8.09v-3.31h-.57v1.88Z" style="fill:#fff;"/><path d="M59.43,247.95h.51c.63,0,.64,.04,.64,.58v7.43c0,.52-.02,.58-.64,.58h-.51v.56h3.68v-.56h-.51c-.62,0-.64-.06-.64-.58v-7.43c0-.54,.01-.58,.64-.58h.51v-.57h-3.68v.57Z" style="fill:#fff;"/><path d="M60.25,246.82s1.54-.81,1.88-1.01h0c.27-.16,.42-.32,.45-.51,.02-.13-.02-.26-.11-.36-.12-.14-.25-.18-.34-.19-.19,0-.37,.06-.6,.25-.32,.25-1.53,1.35-1.58,1.4l-.16,.15,.3,.36,.16-.09Z" style="fill:#fff;"/><path d="M73.89,247.95h.51c.85,0,1.01,.2,1.01,.57v6.24l-6.49-7.38h-2.81v.57h.51c.85,0,1.02,.2,1.02,.57v7.44c0,.37-.17,.58-1.02,.58h-.51v.56h3.69v-.56h-.51c-.85,0-1.01-.21-1.01-.58v-7.16l7.26,8.29h.5v-8.58c0-.37,.16-.57,1.02-.57h.51v-.57h-3.68v.57Z" style="fill:#fff;"/><path d="M80.59,247.95h.51c.63,0,.64,.04,.64,.58v7.43c0,.52-.02,.58-.64,.58h-.51v.56h3.68v-.56h-.51c-.62,0-.64-.06-.64-.58v-7.43c0-.54,.01-.58,.64-.58h.51v-.57h-3.68v.57Z" style="fill:#fff;"/><path d="M97.31,254.36c-.84,1.4-2.3,2.17-3.97,2.08-2.16-.11-4.36-1.5-4.42-4.36-.03-1.16,.34-2.22,1.04-2.98,.7-.76,1.69-1.2,2.8-1.22,1.25-.03,2.36,.34,3.02,.99,.38,.37,.58,.8,.58,1.25v.73h.58v-3.58h-.58v.54c0,.22,0,.44-.02,.55-.1-.03-.26-.12-.42-.21-.53-.3-1.43-.81-2.93-.85-1.6-.04-3.09,.57-4.15,1.66-.96,.99-1.46,2.26-1.39,3.57,.12,2.58,2.34,4.49,5.4,4.66,.11,0,.22,0,.32,0,1.94,0,3.61-.91,4.63-2.54l.13-.21-.51-.26-.11,.18Z" style="fill:#fff;"/><path d="M109.76,255.86l-3.92-8.48h-.47l-3.58,8.49c-.22,.5-.39,.67-.92,.67h-.47v.56h2.89v-.56h-.51c-.44,0-.51-.06-.51-.07,0,0-.04-.07,.1-.42l.87-2.03h4.17l.94,2.04c.06,.13,.19,.4,.21,.44,0,0-.08,.04-.39,.04h-.51v.56h3.57v-.56h-.39c-.63,0-.78-.1-1.07-.68m-6.26-2.46l1.72-4.09,1.9,4.09h-3.62Z" style="fill:#fff;"/><path d="M130.34,247.08l-.19,.3h-.17l-3.55,5.68-3.9-5.68h-2.68v.57h.51c.87,0,1.03,.21,1.03,.58v7.43c0,.37-.17,.58-1.03,.58h-.51v.56h3.7v-.56h-.51c-.86,0-1.03-.21-1.03-.58v-6.88l3.79,5.47h.42l3.68-5.9v7.3c0,.52-.02,.58-.64,.58h-.51v.56h3.68v-.56h-.51c-.62,0-.64-.06-.64-.58v-7.43c0-.54,.01-.58,.64-.58h.51v-.57h-2.08v-.3Z" style="fill:#fff;"/><path d="M142.94,255.67c0,.65-.13,.82-.64,.82h-4.32v-4.02h2.69c.51,0,.65,.2,.65,.87v.48h.58v-3.31h-.58v.49c0,.68-.15,.87-.65,.87h-2.69v-3.88h4.06c.53,0,.65,.16,.65,.82v1.64h.57v-3.07h-7.83v.57h.51c.63,0,.64,.04,.64,.58v7.43c0,.52-.02,.58-.64,.58h-.51v.56h8.09v-3.07h-.58v1.64Z" style="fill:#fff;"/><path d="M138.76,246.82s1.54-.81,1.88-1.01h0c.27-.16,.42-.32,.45-.51,.02-.13-.02-.26-.11-.36-.12-.14-.25-.18-.34-.19-.18,0-.37,.06-.6,.25-.32,.25-1.53,1.35-1.58,1.4l-.16,.15,.3,.36,.16-.09Z" style="fill:#fff;"/><path d="M151.7,247.38h-4.59v.57h.5c.62,0,.64,.04,.64,.58v7.43c0,.52-.02,.58-.64,.58h-.5v.56h4.59c4.02,0,5.83-2.44,5.83-4.86s-1.8-4.86-5.83-4.86m-2.06,.61h1.8c2.93,0,4.61,1.55,4.61,4.25s-1.68,4.25-4.61,4.25h-1.8v-8.5Z" style="fill:#fff;"/><path d="M160.69,247.95h.51c.62,0,.64,.04,.64,.58v7.43c0,.52-.02,.58-.64,.58h-.51v.56h3.68v-.56h-.51c-.62,0-.64-.06-.64-.58v-7.43c0-.54,.01-.58,.64-.58h.51v-.57h-3.68v.57Z" style="fill:#fff;"/><path d="M177.41,254.36c-.84,1.4-2.28,2.16-3.97,2.08-2.16-.11-4.36-1.5-4.42-4.36-.03-1.16,.34-2.22,1.04-2.98,.7-.76,1.69-1.2,2.8-1.22,1.27-.04,2.36,.34,3.02,.99,.38,.37,.58,.8,.58,1.25v.73h.58v-3.58h-.58v.54c0,.22,0,.44-.02,.55-.1-.03-.26-.12-.42-.21-.54-.3-1.43-.81-2.93-.85-1.61-.04-3.09,.57-4.15,1.66-.96,.99-1.46,2.26-1.39,3.57,.13,2.58,2.34,4.49,5.4,4.66,.11,0,.22,0,.32,0,1.94,0,3.61-.91,4.63-2.54l.13-.21-.51-.26-.11,.18Z" style="fill:#fff;"/><path d="M189.86,255.86l-3.85-8.35-.06-.13h-.47l-3.58,8.49c-.22,.5-.39,.67-.92,.67h-.47v.56h2.89v-.56h-.51c-.44,0-.51-.06-.52-.07,0,0-.04-.07,.1-.42l.87-2.03h4.17l.94,2.04c.06,.13,.19,.4,.21,.44-.01,0-.08,.04-.39,.04h-.51v.56h3.57v-.56h-.39c-.63,0-.78-.1-1.07-.68m-6.26-2.46l1.72-4.09,1.9,4.09h-3.62Z" style="fill:#fff;"/><path d="M204.54,247.38h-4.59v.57h.5c.62,0,.64,.04,.64,.58v7.43c0,.52-.02,.58-.64,.58h-.5v.56h4.59c4.02,0,5.83-2.44,5.83-4.86s-1.8-4.86-5.83-4.86m-2.05,.61h1.79c2.93,0,4.61,1.55,4.61,4.25s-1.68,4.25-4.61,4.25h-1.79v-8.5Z" style="fill:#fff;"/><path d="M222.16,255.86l-3.85-8.35-.06-.13h-.47l-3.58,8.49c-.22,.5-.39,.67-.92,.67h-.47v.56h2.89v-.56h-.51c-.44,0-.51-.06-.52-.07,0,0-.04-.07,.1-.42l.86-2.03h4.17l.94,2.04c.06,.13,.19,.4,.21,.44-.01,0-.08,.04-.39,.04h-.51v.56h3.57v-.56h-.38c-.63,0-.78-.1-1.07-.68m-6.26-2.46l1.72-4.09,1.9,4.09h-3.62Z" style="fill:#fff;"/><path d="M232.25,247.95h.51c.62,0,.64,.04,.64,.58v7.43c0,.52-.02,.58-.64,.58h-.51v.56h4.2v-.56h-1.02c-.62,0-.64-.06-.64-.58v-3.49h2.71c.5,0,.65,.2,.65,.87v.48h.57v-3.31h-.57v.49c0,.67-.15,.87-.65,.87h-2.71v-3.88h4.06c.53,0,.65,.16,.65,.82v1.64h.58v-3.07h-7.84v.57Z" style="fill:#fff;"/><path d="M250.95,255.86l-3.85-8.35-.06-.13h-.47l-3.58,8.49c-.22,.5-.39,.67-.92,.67h-.47v.56h2.89v-.56h-.51c-.44,0-.51-.06-.52-.07,0,0-.04-.07,.1-.42l.86-2.03h4.17l.94,2.04c.06,.13,.19,.4,.21,.44-.01,0-.08,.04-.39,.04h-.51v.56h3.57v-.56h-.38c-.63,0-.78-.1-1.07-.68m-6.26-2.46l1.72-4.09,1.9,4.09h-3.62Z" style="fill:#fff;"/><path d="M265.75,247.08l-.19,.3h-.17l-3.55,5.68-3.9-5.68h-2.68v.57h.51c.87,0,1.03,.21,1.03,.58v7.43c0,.37-.17,.58-1.03,.58h-.51v.56h3.7v-.56h-.51c-.86,0-1.03-.21-1.03-.58v-6.88l3.72,5.38,.07,.1h.42l3.68-5.9v7.3c0,.53-.02,.58-.64,.58h-.52v.56h3.68v-.56h-.51c-.62,0-.64-.06-.64-.58v-7.43c0-.54,.02-.58,.64-.58h.51v-.57h-2.08v-.3Z" style="fill:#fff;"/><path d="M271.67,246.82s1.54-.81,1.88-1.01h0c.27-.16,.42-.32,.45-.51,.02-.13-.02-.26-.11-.36-.11-.14-.25-.18-.34-.19-.18-.01-.37,.06-.6,.25-.32,.25-1.53,1.35-1.58,1.4l-.16,.15,.29,.36,.16-.09Z" style="fill:#fff;"/><path d="M270.85,247.95h.51c.62,0,.64,.04,.64,.58v7.43c0,.52-.02,.58-.64,.58h-.51v.56h3.68v-.56h-.51c-.62,0-.64-.06-.64-.58v-7.43c0-.54,.01-.58,.64-.58h.51v-.57h-3.68v.57Z" style="fill:#fff;"/><path d="M285.07,255.67c0,.64-.14,.82-.66,.82h-4.32v-7.95c0-.54,.01-.58,.64-.58h.51v-.57h-3.7v.57h.51c.63,0,.64,.04,.64,.58v7.43c0,.52-.02,.58-.64,.58h-.51v.56h8.09v-3.31h-.57v1.88Z" style="fill:#fff;"/><path d="M288.93,247.95h.51c.62,0,.64,.04,.64,.58v7.43c0,.52-.02,.58-.64,.58h-.51v.56h3.68v-.56h-.51c-.62,0-.64-.06-.64-.58v-7.43c0-.54,.01-.58,.64-.58h.51v-.57h-3.68v.57Z" style="fill:#fff;"/><path d="M305.91,256.54c-.63,0-.78-.1-1.07-.68l-3.85-8.35-.06-.13h-.47l-3.58,8.49c-.22,.5-.39,.67-.92,.67h-.47v.56h2.89v-.56h-.51c-.44,0-.51-.06-.52-.07,0,0-.04-.07,.1-.42l.87-2.03h4.17l.94,2.04c.06,.13,.19,.4,.21,.44-.01,0-.08,.04-.39,.04h-.51v.56h3.57v-.56h-.39Zm-7.32-3.14l1.72-4.09,1.9,4.09h-3.62Z" style="fill:#fff;"/><path d="M169.59,147.3c-.59,0-1.14-.29-1.53-.84-1.23-1.71-2.81-3.17-4.69-4.32-2.75-1.69-5.85-2.64-8.85-3.56-.61-.19-1.23-.38-1.84-.57-14.26-4.53-25.51-12.04-33.44-22.3-8.93-11.56-13.21-27.26-11.18-40.97,.09-.58,.5-1.01,1.04-1.08,.52-.07,1,.22,1.22,.73,2.93,6.73,7.08,12.78,12.02,17.5,6.36,6.09,13.84,9.98,21.6,13.75l.59,.29c6.59,3.21,13.41,6.52,18.5,12.6,5.24,6.26,8.94,15.55,9.42,26.76,.05,1.08,.05,1.66-.86,1.98-.2,.07-1.78,.03-1.98,.03m-60.28-71.95c-1.84,13.29,2.35,28.4,10.98,39.57,7.76,10.05,18.79,17.4,32.8,21.85,.61,.19,1.21,.38,1.82,.57,3.07,.94,6.25,1.92,9.15,3.69,2.03,1.24,3.74,2.82,5.07,4.67,.18,.25,.4,.34,.65,.26,.29-.1,.6-.47,.57-1.04-.47-10.91-3.27-19.51-8.32-25.54-4.91-5.86-11.6-9.12-18.07-12.26l-.59-.29c-7.85-3.82-15.43-7.77-21.93-13.98-4.95-4.74-9.14-10.78-12.12-17.5" style="fill:#fff;"/><path d="M145.29,107.66c-9.79-7.26-18.09-21.04-20.84-34.49-.52,5-.69,10.04-.52,15.03,.07,1.99,.19,4.1,.88,5.99l-1.25,.44c-.74-2.07-.88-4.38-.95-6.38-.18-5.33,.02-10.73,.61-16.03,.07-.65,.55-1.11,1.15-1.13,.6-.02,1.1,.4,1.22,1.03,2.47,13.2,10.9,27.39,20.49,34.5l-.79,1.04Z" style="fill:#fff;"/><path d="M171.19,147.3c-.2,0-.4-.03-.61-.1-.91-.32-2.54-.54-2.5-1.62,.48-11.21,4.43-20.78,9.67-27.03,5.09-6.08,11.9-9.39,18.5-12.6l.59-.29c7.75-3.77,15.24-7.67,21.6-13.75,4.93-4.72,9.09-10.77,12.02-17.5,.22-.51,.7-.8,1.22-.73,.53,.07,.95,.5,1.04,1.08,2.03,13.71-2.25,29.4-11.18,40.97-7.93,10.26-19.17,17.77-33.44,22.3-.61,.19-1.22,.38-1.84,.57-3,.92-6.09,1.87-8.85,3.56-1.88,1.15-3.46,2.61-4.69,4.32-.39,.54-.94,.84-1.53,.84m60.29-71.96c-2.99,6.72-7.17,12.77-12.13,17.51-6.49,6.21-14.08,10.16-21.93,13.98l-.59,.29c-6.47,3.15-13.16,6.4-18.07,12.26-5.05,6.04-7.85,14.63-8.32,25.54-.02,.57,.28,.94,.57,1.04,.24,.08,.46,0,.65-.26,1.33-1.86,3.04-3.43,5.07-4.67,2.89-1.77,6.07-2.75,9.15-3.69,.61-.19,1.22-.37,1.82-.57,14-4.45,25.04-11.81,32.8-21.85,8.63-11.18,12.82-26.3,10.98-39.58" style="fill:#fff;"/><path d="M195.35,107.83l-.8-1.04c9.65-7.15,18.13-21.4,20.62-34.66,.12-.63,.62-1.05,1.23-1.03,.61,.02,1.09,.49,1.16,1.14,.59,5.32,.8,10.74,.61,16.1-.07,2.01-.21,4.33-.96,6.41l-1.25-.44c.69-1.9,.81-4.01,.88-6.02,.17-5.03,0-10.1-.52-15.11-2.77,13.53-11.12,27.36-20.97,34.65" style="fill:#fff;"/><rect x="169.96" y="10.95" width="1.16" height="125.59" style="fill:#fff;"/><rect x="160.11" y="3.37" width="1.16" height="131.66" transform="translate(-8.17 23.42) rotate(-8.13)" style="fill:#fff;"/><rect x="152.53" y="9.63" width="1.16" height="125.5" transform="translate(-13.74 43.38) rotate(-15.44)" style="fill:#fff;"/><rect x="146.13" y="21.38" width="1.16" height="114.05" transform="translate(-19.1 65.02) rotate(-23.5)" style="fill:#fff;"/><rect x="139.8" y="36.98" width="1.16" height="95.89" transform="translate(-23.54 91.94) rotate(-33.62)" style="fill:#fff;"/><rect x="114.39" y="68.71" width="131.51" height="1.16" transform="translate(85.96 237.76) rotate(-81.83)" style="fill:#fff;"/><rect x="124.95" y="71.8" width="125.5" height="1.16" transform="translate(68.01 234.07) rotate(-74.58)" style="fill:#fff;"/><rect x="137.11" y="77.74" width="114.35" height="1.16" transform="translate(44.72 224.99) rotate(-66.4)" style="fill:#fff;"/><rect x="152.48" y="84.35" width="95.89" height="1.16" transform="translate(18.73 204.81) rotate(-56.38)" style="fill:#fff;"/><path d="M232.87,75.07h-1.31c0-36.26-22.8-73.76-60.96-73.76-34.21,0-61.02,32.09-61.02,73.06h-1.31c0-19.62,6.11-38.06,17.2-51.94C137.04,7.97,153.07,0,170.6,0s33.51,8.09,45.1,22.79c11.07,14.05,17.17,32.61,17.17,52.28" style="fill:#fff;"/><polygon points="170.37 2.42 171.54 4.55 173.66 5.71 171.54 6.88 170.37 9 169.21 6.88 167.08 5.71 169.21 4.55 170.37 2.42" style="fill:#fff;"/><path d="M164.7,120.86c1.15,1.03,2.4,2,3.86,2.5,2.48,.85,5.42,.12,7.22-1.78-.8,.69-1.24,1.7-1.72,2.64-.46,.91-.92,1.82-1.39,2.73-1,1.97-2.01,3.96-2.63,6.08-.78-3.36-1.84-6.66-3.16-9.85-.42-1.01-1.12-2.06-2.18-2.33" style="fill:#fff;"/></g></svg>