<?xml version="1.0" encoding="UTF-8"?><svg id="Camada_2" xmlns="http://www.w3.org/2000/svg" viewBox="0 0 507.04 154.85"><g id="Camada_2-2"><g id="Camada_1-2"><g><path d="M65.19,154.83c-.62,0-1.2-.3-1.61-.88-1.29-1.8-2.95-3.33-4.93-4.54-2.89-1.78-6.15-2.77-9.3-3.74-.64-.2-1.29-.4-1.93-.6-14.99-4.76-26.81-12.66-35.15-23.44C2.89,109.47-1.61,92.97,.52,78.57c.09-.61,.53-1.06,1.09-1.14,.55-.07,1.05,.23,1.28,.77,3.08,7.07,7.44,13.43,12.63,18.39,6.69,6.39,14.55,10.49,22.7,14.45l.62,.3c6.93,3.37,14.1,6.85,19.45,13.24,5.51,6.58,9.4,16.35,9.9,28.13,.05,1.14,.05,1.74-.9,2.08-.21,.07-1.87,.03-2.08,.03M1.83,79.19c-1.93,13.97,2.47,29.85,11.54,41.59,8.16,10.56,19.75,18.29,34.48,22.97,.64,.2,1.28,.4,1.91,.6,3.23,.99,6.57,2.02,9.62,3.88,2.13,1.3,3.93,2.96,5.33,4.91,.19,.26,.42,.36,.68,.27,.3-.11,.62-.49,.6-1.09-.49-11.47-3.44-20.51-8.75-26.85-5.16-6.16-12.19-9.59-18.99-12.89l-.62-.3c-8.25-4.02-16.22-8.17-23.05-14.69-5.2-4.98-9.61-11.33-12.74-18.39" style="fill:#fff;"/><path d="M39.65,113.16c-10.29-7.63-19.01-22.12-21.91-36.25-.55,5.26-.73,10.55-.55,15.8,.07,2.09,.2,4.31,.92,6.3l-1.31,.46c-.78-2.18-.92-4.6-1-6.71-.19-5.6,.02-11.28,.64-16.85,.07-.67,.58-1.17,1.21-1.19s1.16,.42,1.28,1.08c2.6,13.87,11.46,28.79,21.54,36.26l-.83,1.09Z" style="fill:#fff;"/><path d="M66.88,154.83c-.21,0-.42-.03-.64-.11-.96-.34-2.67-.58-2.63-1.7,.5-11.78,4.66-21.84,10.16-28.41,5.35-6.39,12.51-9.87,19.45-13.24l.62-.3c8.15-3.96,16.02-8.06,22.7-14.45,5.18-4.96,9.55-11.32,12.63-18.39,.23-.54,.74-.84,1.28-.77,.56,.07,1,.53,1.09,1.14,2.13,14.41-2.37,30.91-11.75,43.06-8.32,10.78-20.15,18.68-35.15,23.44-.64,.2-1.28,.4-1.93,.6-3.15,.97-6.4,1.97-9.3,3.74-1.98,1.21-3.64,2.74-4.93,4.54-.41,.57-1,.88-1.61,.88m63.37-75.64c-3.14,7.06-7.54,13.42-12.75,18.41-6.82,6.53-14.8,10.68-23.05,14.69l-.62,.3c-6.8,3.31-13.83,6.73-18.99,12.89-5.31,6.35-8.25,15.38-8.76,26.85-.02,.6,.29,.99,.6,1.09,.25,.08,.49,0,.68-.27,1.4-1.96,3.2-3.61,5.33-4.91,3.05-1.86,6.38-2.89,9.62-3.88,.64-.2,1.28-.39,1.91-.6,14.72-4.68,26.32-12.41,34.48-22.97,9.07-11.75,13.48-27.64,11.54-41.6" style="fill:#fff;"/><path d="M92.28,113.34l-.84-1.09c10.14-7.52,19.06-22.49,21.67-36.43,.13-.66,.65-1.1,1.29-1.08,.64,.02,1.15,.52,1.22,1.2,.62,5.59,.84,11.29,.64,16.92-.07,2.11-.22,4.55-1.01,6.74l-1.31-.46c.73-2,.85-4.22,.92-6.33,.18-5.29,0-10.62-.55-15.88-2.91,14.22-11.69,28.76-22.04,36.42" style="fill:#fff;"/><rect x="65.58" y="11.51" width="1.22" height="132.01" style="fill:#fff;"/><rect x="55.23" y="3.54" width="1.22" height="138.39" transform="translate(-9.73 8.63) rotate(-8.13)" style="fill:#fff;"/><rect x="47.25" y="10.13" width="1.22" height="131.92" transform="translate(-18.53 15.49) rotate(-15.44)" style="fill:#fff;"/><rect x="40.53" y="22.48" width="1.22" height="119.88" transform="translate(-29.45 23.24) rotate(-23.5)" style="fill:#fff;"/><rect x="33.87" y="38.88" width="1.22" height="100.79" transform="translate(-43.66 34.02) rotate(-33.62)" style="fill:#fff;"/><rect x="7.17" y="72.22" width="138.23" height="1.22" transform="translate(-6.64 138) rotate(-81.83)" style="fill:#fff;"/><rect x="18.27" y="75.47" width="131.92" height="1.22" transform="translate(-11.51 137.04) rotate(-74.58)" style="fill:#fff;"/><rect x="31.05" y="81.71" width="120.2" height="1.22" transform="translate(-20.77 132.89) rotate(-66.4)" style="fill:#fff;"/><rect x="47.22" y="88.67" width="100.79" height="1.22" transform="translate(-30.77 121.13) rotate(-56.38)" style="fill:#fff;"/><path d="M131.7,78.91h-1.38c0-38.11-23.97-77.53-64.08-77.53C30.29,1.38,2.12,35.11,2.12,78.17H.74C.74,57.55,7.17,38.16,18.82,23.58,30.98,8.38,47.82,0,66.25,0s35.22,8.5,47.41,23.96c11.64,14.77,18.05,34.28,18.05,54.95" style="fill:#fff;"/><polygon points="66.02 2.54 67.24 4.78 69.48 6 67.24 7.23 66.02 9.46 64.79 7.23 62.56 6 64.79 4.78 66.02 2.54" style="fill:#fff;"/></g></g><g id="Camada_1-2-2"><g><path d="M166.27,60.4c0-14.63,12.2-25.95,27.49-25.95,5.87,0,13.05,1.4,17.68,4.93v7.35c-4.25-5.95-11.35-11.32-19.23-11.32-13.2,0-19.69,11.83-19.69,23.08,0,12.06,7.18,26.91,21.78,26.91,7.88,0,14.36-5.51,18.38-11.54l1,4.85c-5.1,4.04-13.2,7.65-19.92,7.65-15.21,0-27.49-11.4-27.49-25.96" style="fill:#fff;"/><path d="M228.74,49.38v25.07c0,5.15,2.16,10.14,8.34,10.14,3.86,0,7.64-1.91,10.58-4.12-3.01,3.45-7.57,5.88-12.28,5.88-7.8,0-10.97-6.18-10.97-12.79v-15.14c0-1.77-.54-3.68-2.78-3.75l7.1-5.29h.01Zm26.1,0v26.98c0,1.69,.39,4.85,2.78,4.85l-7.1,4.93v-27.72c0-1.84-.54-3.68-2.78-3.75l7.1-5.29Z" style="fill:#fff;"/><path d="M266.43,86.13c2.93-.88,3.71-3.31,3.71-6.03v-21.53c0-1.54-.31-4.56-2.55-4.56l6.95-4.63v30.73c0,2.72,.85,5.15,3.71,6.03h-11.82Zm2.47-45.59c0-1.76,1.31-2.94,3.17-2.94s3.09,1.18,3.09,2.94-1.24,2.94-3.09,2.94-3.17-1.18-3.17-2.94" style="fill:#fff;"/><path d="M287.2,68.64c0-10.44,7.1-19.41,18.61-19.41,5.02,0,7.64,1.4,11.35,4.41v-11.84c0-1.76-.31-4.93-2.86-4.93l7.18-5.22v45.29c0,1.84,.54,3.75,2.86,3.9l-7.18,5.15v-25.81c0-5.59-6.33-10.22-11.89-10.22-8.88,0-13.2,9.78-13.2,17.05s4.01,17.42,12.97,17.42c4.32,0,6.95-1.47,10.04-4.26-2.47,3.6-6.95,6.03-11.51,6.03-10.04,0-16.37-8.6-16.37-17.57" style="fill:#fff;"/><path d="M334.23,77.24c0-8.53,15.68-11.84,22.47-12.79v-3.9c0-4.71-1.78-10.37-7.8-10.37-2.78,0-7.88,1.25-7.88,4.56,0,1.03,.39,1.99,.39,3.09,0,1.76-1.08,2.72-2.93,2.72s-2.7-1.4-2.7-2.94c0-5,9.5-8.23,13.82-8.23,10.43,0,11.43,5.66,11.43,14.11,4.63-1.1,9.19-2.5,13.36-4.78,0-1.54-.31-4.63-2.55-4.63l6.95-4.63v6.62c3.4-2.43,7.1-6.69,11.74-6.69,1.62,0,3.17,.66,3.17,2.35s-1.08,2.57-2.86,2.57-2.39-1.32-4.71-1.32c-1.39,0-3.17,.81-4.25,1.69-7.96,6.54-16.68,8.82-26.72,10.88-6.64,1.4-15.52,3.6-15.52,11.61,0,4.56,3.17,7.43,7.88,7.43,3.17,0,5.72-1.25,8.26-2.87-2.62,3.16-6.64,4.56-10.81,4.56-5.79,0-10.73-3.09-10.73-9.04m22.47-10.44c1.47-.37,2.86-.66,4.32-.95v13.38c0,2.28,.85,4.56,3.63,4.56,1.08,0,2.16-.22,2.93-.96-.54,1.84-3.47,3.46-5.41,3.46-4.63,0-5.48-3.31-5.48-7.06v-12.42h0Zm13.98,19.32c3.01-1.03,3.71-3.23,3.71-6.03v-18.74c1.08-.51,3.47-1.98,4.4-2.79v21.54c0,2.87,.77,4.78,3.63,6.03h-11.74Z" style="fill:#fff;"/><path d="M449.98,85.4c4.4,0,11.51-.96,11.51-6.47,0-9.41-24.79-7.28-24.79-19.7,0-6.76,6.18-10.29,12.67-10.29,3.01,0,10.27,1.4,13.05,2.57v6.91c-1.78-5.22-7.72-8.82-13.36-8.82-3.94,0-9.57,2.13-9.57,6.54,0,10.73,24.86,8.16,24.86,20.14,0,7.57-6.87,10.22-13.74,10.22-4.48,0-10.12-.96-14.44-2.21v-8.75c2.24,5.59,7.34,9.85,13.82,9.85" style="fill:#fff;"/><path d="M492.92,49.52c9.42,0,14.05,8.01,14.05,16.1h-28.88c0,8.9,3.86,18.01,14.67,18.01,4.63,0,11.97-1.47,14.28-5.81-2.32,5.59-8.88,8.82-14.98,8.82-10.66,0-18.61-7.94-18.61-18.01,0-11.47,7.18-19.11,19.46-19.11m-14.75,15.07h20.08c3.24,0,4.94-2.43,4.94-5.29,0-5.88-5.64-9.19-11.27-9.19-7.65,0-13.74,7.57-13.74,14.48" style="fill:#fff;"/><rect x="406.97" y="62.09" width="15.14" height="2.87" style="fill:#fff;"/></g><g><path d="M210.63,118.7c-.84,1.4-2.3,2.17-3.97,2.08-2.16-.11-4.36-1.5-4.42-4.36-.03-1.16,.34-2.22,1.04-2.98s1.69-1.2,2.8-1.22c1.24-.03,2.36,.34,3.02,.99,.38,.37,.58,.8,.58,1.25v.73h.58v-3.57h-.58v.54c0,.22,0,.44-.02,.55-.1-.03-.26-.12-.42-.21-.54-.3-1.43-.81-2.93-.85-1.6-.04-3.09,.57-4.15,1.66-.96,.99-1.46,2.26-1.39,3.57,.12,2.58,2.34,4.49,5.4,4.66h.32c1.94,0,3.61-.91,4.63-2.54l.13-.21-.51-.26-.11,.18h0Z" style="fill:#fff;"/><path d="M221.83,120.01c0,.64-.14,.82-.66,.82h-4.32v-7.95c0-.54,0-.58,.64-.58h.51v-.57h-3.7v.57h.51c.62,0,.64,.04,.64,.58v7.43c0,.52-.02,.58-.64,.58h-.51v.56h8.09v-3.31h-.57v1.88h.01Z" style="fill:#fff;"/><path d="M225.7,112.29h.51c.63,0,.64,.04,.64,.58v7.43c0,.53-.02,.58-.64,.58h-.51v.56h3.68v-.56h-.52c-.62,0-.64-.06-.64-.58v-7.43c0-.54,.02-.58,.64-.58h.52v-.57h-3.68v.57Z" style="fill:#fff;"/><path d="M226.52,111.16s1.54-.81,1.88-1.01h0c.27-.16,.42-.32,.45-.51,.02-.13-.02-.26-.11-.36-.12-.14-.25-.18-.34-.19-.19,0-.37,.06-.6,.25-.32,.25-1.53,1.35-1.59,1.4l-.16,.15,.3,.36,.16-.09h0Z" style="fill:#fff;"/><path d="M240.16,112.29h.51c.85,0,1.02,.2,1.02,.57v6.24l-6.48-7.38h-2.81v.57h.52c.85,0,1.02,.2,1.02,.57v7.44c0,.37-.17,.58-1.02,.58h-.52v.56h3.68v-.56h-.51c-.85,0-1.02-.21-1.02-.58v-7.16l7.27,8.3h.5v-8.58c0-.37,.16-.57,1.02-.57h.51v-.57h-3.68v.57h0Z" style="fill:#fff;"/><path d="M246.86,112.29h.51c.63,0,.64,.04,.64,.58v7.43c0,.53-.02,.58-.64,.58h-.51v.56h3.68v-.56h-.52c-.62,0-.64-.06-.64-.58v-7.43c0-.54,.02-.58,.64-.58h.52v-.57h-3.68v.57Z" style="fill:#fff;"/><path d="M263.58,118.7c-.84,1.4-2.3,2.17-3.97,2.08-2.16-.11-4.36-1.5-4.42-4.36-.03-1.16,.34-2.22,1.04-2.98,.7-.76,1.69-1.2,2.8-1.22,1.25-.03,2.36,.34,3.02,.99,.38,.37,.58,.8,.58,1.25v.73h.58v-3.57h-.58v.54c0,.22,0,.44-.02,.55-.1-.03-.26-.12-.42-.21-.54-.3-1.43-.81-2.93-.85-1.61-.04-3.09,.57-4.15,1.66-.96,.99-1.46,2.26-1.39,3.57,.12,2.58,2.34,4.49,5.4,4.66h.32c1.94,0,3.61-.91,4.63-2.54l.13-.21-.51-.26-.11,.18h0Z" style="fill:#fff;"/><path d="M276.03,120.2l-3.91-8.48h-.47l-3.58,8.49c-.22,.5-.39,.67-.92,.67h-.47v.56h2.89v-.56h-.51c-.44,0-.51-.06-.52-.07,0,0-.04-.07,.1-.42l.87-2.03h4.17l.94,2.04c.06,.13,.19,.4,.21,.44-.01,0-.08,.04-.39,.04h-.51v.56h3.57v-.56h-.39c-.63,0-.78-.09-1.07-.68m-6.26-2.46l1.72-4.09,1.9,4.09h-3.62Z" style="fill:#fff;"/><path d="M296.61,111.42l-.19,.3h-.16l-3.55,5.68-3.9-5.68h-2.68v.57h.51c.87,0,1.03,.21,1.03,.58v7.43c0,.37-.17,.58-1.03,.58h-.51v.56h3.7v-.56h-.51c-.86,0-1.03-.21-1.03-.58v-6.88l3.79,5.47h.42l3.68-5.9v7.3c0,.52-.02,.58-.64,.58h-.52v.56h3.68v-.56h-.51c-.62,0-.64-.06-.64-.58v-7.43c0-.54,.02-.58,.64-.58h.51v-.57h-2.08v-.3h0Z" style="fill:#fff;"/><path d="M309.21,120.01c0,.65-.13,.82-.64,.82h-4.32v-4.02h2.69c.51,0,.65,.2,.65,.87v.48h.58v-3.31h-.58v.49c0,.68-.15,.87-.65,.87h-2.69v-3.88h4.06c.53,0,.65,.16,.65,.82v1.64h.57v-3.07h-7.83v.57h.51c.63,0,.64,.04,.64,.58v7.43c0,.52-.02,.58-.64,.58h-.51v.56h8.09v-3.07h-.58v1.64h0Z" style="fill:#fff;"/><path d="M305.03,111.16s1.54-.81,1.88-1.01h0c.27-.16,.42-.32,.45-.51,.02-.13-.02-.26-.11-.36-.12-.14-.25-.18-.34-.19-.18,0-.37,.06-.6,.25-.32,.25-1.53,1.35-1.59,1.4l-.16,.15,.3,.36,.16-.09h0Z" style="fill:#fff;"/><path d="M317.97,111.72h-4.59v.57h.5c.62,0,.64,.04,.64,.58v7.43c0,.52-.02,.58-.64,.58h-.5v.56h4.59c4.03,0,5.83-2.44,5.83-4.86s-1.8-4.86-5.83-4.86m-2.06,.61h1.8c2.93,0,4.61,1.55,4.61,4.25s-1.68,4.25-4.61,4.25h-1.8v-8.5Z" style="fill:#fff;"/><path d="M326.96,112.29h.51c.62,0,.64,.04,.64,.58v7.43c0,.53-.02,.58-.64,.58h-.51v.56h3.68v-.56h-.51c-.62,0-.64-.06-.64-.58v-7.43c0-.54,.02-.58,.64-.58h.51v-.57h-3.68v.57Z" style="fill:#fff;"/><path d="M343.68,118.7c-.84,1.4-2.28,2.16-3.97,2.08-2.16-.11-4.36-1.5-4.42-4.36-.03-1.16,.34-2.22,1.04-2.98s1.69-1.2,2.8-1.22c1.27-.04,2.36,.34,3.02,.99,.38,.37,.58,.8,.58,1.25v.73h.58v-3.57h-.58v.54c0,.22,0,.44-.02,.55-.1-.03-.26-.12-.42-.21-.54-.3-1.43-.81-2.93-.85-1.61-.04-3.09,.57-4.15,1.66-.96,.99-1.46,2.26-1.39,3.57,.13,2.58,2.34,4.49,5.4,4.66h.32c1.94,0,3.61-.91,4.63-2.54l.13-.21-.51-.26-.11,.18h0Z" style="fill:#fff;"/><path d="M356.13,120.2l-3.85-8.35-.06-.13h-.47l-3.58,8.49c-.22,.5-.39,.67-.92,.67h-.47v.56h2.89v-.56h-.51c-.44,0-.51-.06-.52-.07,0,0-.04-.07,.1-.42l.87-2.03h4.17l.94,2.04c.06,.13,.19,.4,.21,.44,0,0-.08,.04-.39,.04h-.51v.56h3.57v-.56h-.39c-.63,0-.78-.09-1.07-.68m-6.26-2.46l1.72-4.09,1.9,4.09h-3.62Z" style="fill:#fff;"/><path d="M370.81,111.72h-4.59v.57h.5c.62,0,.64,.04,.64,.58v7.43c0,.52-.02,.58-.64,.58h-.5v.56h4.59c4.02,0,5.83-2.44,5.83-4.86s-1.8-4.86-5.83-4.86m-2.05,.61h1.79c2.93,0,4.61,1.55,4.61,4.25s-1.68,4.25-4.61,4.25h-1.79v-8.5Z" style="fill:#fff;"/><path d="M388.43,120.2l-3.85-8.35-.06-.13h-.47l-3.58,8.49c-.22,.5-.39,.67-.92,.67h-.47v.56h2.89v-.56h-.51c-.44,0-.51-.06-.52-.07,0,0-.04-.07,.1-.42l.86-2.03h4.17l.94,2.04c.06,.13,.19,.4,.21,.44,0,0-.08,.04-.39,.04h-.51v.56h3.57v-.56h-.38c-.63,0-.78-.09-1.07-.68m-6.26-2.46l1.72-4.09,1.9,4.09h-3.62Z" style="fill:#fff;"/><path d="M398.52,112.29h.51c.62,0,.64,.04,.64,.58v7.43c0,.53-.02,.58-.64,.58h-.51v.56h4.2v-.56h-1.02c-.62,0-.64-.06-.64-.58v-3.49h2.71c.5,0,.65,.2,.65,.87v.48h.57v-3.31h-.57v.49c0,.67-.15,.87-.65,.87h-2.71v-3.88h4.06c.53,0,.65,.16,.65,.82v1.64h.58v-3.07h-7.84v.57h.01Z" style="fill:#fff;"/><path d="M417.22,120.2l-3.85-8.35-.06-.13h-.47l-3.58,8.49c-.22,.5-.39,.67-.92,.67h-.47v.56h2.89v-.56h-.51c-.44,0-.51-.06-.52-.07,0,0-.04-.07,.1-.42l.86-2.03h4.17l.94,2.04c.06,.13,.19,.4,.21,.44,0,0-.08,.04-.39,.04h-.51v.56h3.57v-.56h-.38c-.63,0-.78-.09-1.07-.68m-6.26-2.46l1.72-4.09,1.9,4.09h-3.62Z" style="fill:#fff;"/><path d="M432.02,111.42l-.19,.3h-.16l-3.55,5.68-3.9-5.68h-2.68v.57h.51c.87,0,1.03,.21,1.03,.58v7.43c0,.37-.17,.58-1.03,.58h-.51v.56h3.7v-.56h-.51c-.86,0-1.03-.21-1.03-.58v-6.88l3.72,5.38,.07,.1h.42l3.68-5.9v7.3c0,.53-.02,.58-.64,.58h-.52v.56h3.68v-.56h-.51c-.62,0-.64-.06-.64-.58v-7.43c0-.54,.02-.58,.64-.58h.51v-.57h-2.08v-.3h-.01Z" style="fill:#fff;"/><path d="M437.94,111.16s1.54-.81,1.88-1.01h0c.27-.16,.42-.32,.45-.51,.02-.13-.02-.26-.11-.36-.11-.14-.25-.18-.34-.19-.17-.01-.37,.06-.6,.25-.32,.25-1.53,1.35-1.59,1.4l-.16,.15,.29,.36,.16-.09h.02Z" style="fill:#fff;"/><path d="M437.12,112.29h.51c.62,0,.64,.04,.64,.58v7.43c0,.53-.02,.58-.64,.58h-.51v.56h3.68v-.56h-.51c-.62,0-.64-.06-.64-.58v-7.43c0-.54,.02-.58,.64-.58h.51v-.57h-3.68v.57Z" style="fill:#fff;"/><path d="M451.34,120.01c0,.64-.14,.82-.66,.82h-4.32v-7.95c0-.54,.01-.58,.64-.58h.51v-.57h-3.7v.57h.51c.63,0,.64,.04,.64,.58v7.43c0,.52-.02,.58-.64,.58h-.51v.56h8.09v-3.31h-.57v1.88h.01Z" style="fill:#fff;"/><path d="M455.2,112.29h.51c.62,0,.64,.04,.64,.58v7.43c0,.53-.02,.58-.64,.58h-.51v.56h3.68v-.56h-.51c-.62,0-.64-.06-.64-.58v-7.43c0-.54,.02-.58,.64-.58h.51v-.57h-3.68v.57Z" style="fill:#fff;"/><path d="M472.18,120.88c-.63,0-.78-.09-1.07-.68l-3.85-8.35-.06-.13h-.47l-3.58,8.49c-.22,.5-.39,.67-.92,.67h-.47v.56h2.89v-.56h-.51c-.44,0-.51-.06-.52-.07,0,0-.04-.07,.1-.42l.87-2.03h4.17l.94,2.04c.06,.13,.19,.4,.21,.44-.01,0-.08,.04-.39,.04h-.51v.56h3.57v-.56h-.4Zm-7.32-3.14l1.72-4.09,1.9,4.09h-3.62Z" style="fill:#fff;"/></g></g></g></svg>